<svg width="60" height="60" xmlns="http://www.w3.org/2000/svg"><g fill-rule="nonzero" fill="#FFF"><path d="M58.352 50.398L45.227 37.273l-.117-.107a24.218 24.218 0 0 0 3.64-12.791C48.75 10.935 37.816 0 24.375 0S0 10.935 0 24.375 10.935 48.75 24.375 48.75c4.52.006 8.95-1.252 12.791-3.633l.107.117L50.398 58.36a5.625 5.625 0 0 0 7.954-7.954v-.007zM7.5 24.375C7.5 15.069 15.07 7.5 24.375 7.5S41.25 15.07 41.25 24.375c0 9.306-7.57 16.875-16.875 16.875S7.5 33.68 7.5 24.375z"/><path d="M31.875 20.625h-3.75v-3.75a3.75 3.75 0 0 0-7.5 0v3.75h-3.75a3.75 3.75 0 0 0 0 7.5h3.75v3.75a3.75 3.75 0 0 0 7.5 0v-3.75h3.75a3.75 3.75 0 0 0 0-7.5z"/></g></svg>